<?xml version="1.0" standalone="no"?>
<!DOCTYPE svg PUBLIC "-//W3C//DTD SVG 20010904//EN"
 "http://www.w3.org/TR/2001/REC-SVG-20010904/DTD/svg10.dtd">
<svg version="1.0" xmlns="http://www.w3.org/2000/svg"
 width="512.000000pt" height="512.000000pt" viewBox="0 0 512.000000 512.000000"
 preserveAspectRatio="xMidYMid meet">

<g transform="translate(0.000000,512.000000) scale(0.100000,-0.100000)"
fill="#000000" stroke="none">
<path d="M567 5099 l-27 -20 -2 -247 -3 -247 -247 -3 -247 -2 -20 -27 -21 -26
0 -2239 0 -2239 25 -24 24 -25 1734 0 1734 0 26 21 27 20 2 247 3 247 244 3
c166 2 249 6 258 14 15 12 4 22 393 -359 203 -199 245 -220 345 -174 45 20
279 263 295 306 15 39 12 92 -6 131 -9 18 -155 168 -324 333 -246 239 -316
302 -347 310 -44 13 -80 13 -108 1 -17 -7 -38 10 -131 102 l-112 110 50 103
c27 57 61 148 75 202 24 89 27 115 27 278 0 162 -3 189 -26 276 -15 53 -42
131 -62 174 l-36 78 0 1046 0 1046 -303 302 -302 303 -1456 0 c-1455 0 -1456
0 -1482 -21z m2833 -391 c0 -245 1 -252 22 -275 21 -23 23 -23 275 -23 l253 0
0 -881 0 -881 -67 62 c-66 62 -188 147 -270 189 l-43 21 0 533 0 532 -298 298
-297 297 -1138 0 -1137 0 0 190 0 190 1350 0 1350 0 0 -252z m430 -135 c0 -2
-61 -3 -135 -3 l-135 0 0 137 0 138 135 -135 c74 -74 135 -136 135 -137z
m-970 -393 c0 -154 4 -248 11 -263 19 -43 45 -47 299 -47 l240 0 0 -448 0
-449 -72 15 c-104 21 -320 20 -428 -2 -216 -45 -421 -157 -575 -315 l-49 -51
-769 0 -768 0 -24 -25 c-33 -32 -33 -78 0 -110 l24 -25 711 0 710 0 -34 -67
c-47 -95 -74 -173 -95 -278 l-18 -90 -646 -5 c-631 -5 -646 -5 -661 -25 -18
-23 -20 -68 -6 -95 20 -38 54 -40 690 -40 l617 0 7 -73 c8 -91 38 -218 70
-297 l25 -60 -685 0 -685 0 -24 -25 c-35 -34 -34 -86 1 -114 26 -21 33 -21
755 -21 l728 0 44 -57 c254 -329 695 -493 1095 -409 l62 14 0 -329 0 -329
-1625 0 -1625 0 0 2130 0 2130 1350 0 1350 0 0 -240z m305 -10 l140 -140 -143
0 -142 0 0 140 c0 77 1 140 3 140 1 0 65 -63 142 -140z m106 -1335 c370 -55
663 -312 776 -682 24 -81 27 -102 27 -258 0 -156 -3 -177 -27 -258 -59 -193
-165 -356 -308 -473 -360 -294 -858 -294 -1218 0 -143 117 -248 278 -307 472
-26 82 -28 102 -28 259 0 156 3 177 27 258 94 307 303 530 599 638 149 55 297
69 459 44z m903 -1838 c9 -13 4 -23 -20 -48 -39 -39 -42 -37 -154 75 l-84 86
34 35 33 34 91 -82 c49 -46 94 -91 100 -100z m-297 -69 l73 -72 0 -78 0 -78
-190 0 -190 0 0 84 0 84 73 40 c39 23 88 52 107 66 19 14 39 25 45 26 5 0 42
-33 82 -72z m795 -258 c156 -151 284 -279 286 -285 1 -5 -47 -59 -108 -120
l-110 -109 -102 99 c-484 470 -480 466 -467 483 26 35 204 212 211 210 4 -2
134 -127 290 -278z"/>
<path d="M726 3789 c-35 -28 -36 -80 -1 -114 l24 -25 751 0 752 0 29 29 c31
32 35 50 17 84 -25 48 0 46 -794 47 -745 0 -752 0 -778 -21z"/>
<path d="M744 3206 c-49 -22 -61 -84 -24 -124 l21 -22 1043 0 c1005 0 1045 1
1067 19 31 25 32 83 1 114 l-23 22 -1027 2 c-847 2 -1032 0 -1058 -11z"/>
<path d="M722 807 c-22 -23 -28 -60 -16 -92 18 -46 7 -45 968 -45 602 0 914 3
932 10 57 22 73 89 31 128 l-23 22 -935 0 -936 0 -21 -23z"/>
<path d="M3024 2710 c-409 -57 -714 -405 -714 -815 0 -380 263 -711 636 -801
92 -22 276 -22 368 0 373 90 636 421 636 801 0 373 -253 699 -616 795 -86 22
-227 32 -310 20z m275 -176 c31 -8 90 -31 131 -51 100 -48 230 -176 283 -280
198 -381 -8 -842 -423 -950 -39 -10 -103 -17 -160 -17 -497 0 -814 526 -583
967 46 87 158 208 237 256 153 92 340 119 515 75z"/>
</g>
</svg>
