<?xml version="1.0" standalone="no"?>
<!DOCTYPE svg PUBLIC "-//W3C//DTD SVG 20010904//EN"
 "http://www.w3.org/TR/2001/REC-SVG-20010904/DTD/svg10.dtd">
<svg version="1.0" xmlns="http://www.w3.org/2000/svg"
 width="512.000000pt" height="512.000000pt" viewBox="0 0 512.000000 512.000000"
 preserveAspectRatio="xMidYMid meet">

<g transform="translate(0.000000,512.000000) scale(0.100000,-0.100000)"
fill="#000000" stroke="none">
<path d="M3558 4467 c-291 -123 -297 -523 -11 -654 175 -80 381 -4 464 171 84
177 19 374 -153 466 -56 30 -73 34 -153 37 -77 3 -98 0 -147 -20z"/>
<path d="M2238 4226 c-157 -65 -247 -225 -218 -388 14 -76 39 -127 92 -184
171 -185 472 -138 579 91 16 33 31 85 35 115 12 109 -45 246 -132 314 -98 77
-243 98 -356 52z"/>
<path d="M1055 3725 c-45 -20 -65 -40 -319 -319 -253 -277 -263 -293 -253
-384 14 -122 160 -199 274 -145 22 10 114 101 236 235 110 120 203 218 206
218 11 0 235 -60 238 -64 4 -3 -270 -275 -503 -499 -111 -107 -148 -169 -149
-247 0 -48 14 -88 112 -319 62 -146 111 -266 110 -268 -2 -1 -207 -108 -457
-238 -249 -129 -462 -243 -473 -252 -10 -10 -30 -36 -43 -58 -90 -155 20 -345
202 -345 54 0 72 7 224 84 540 277 960 499 993 527 l39 32 58 -64 c37 -40 57
-70 54 -80 -58 -203 -174 -653 -174 -679 0 -87 52 -170 131 -211 69 -35 169
-25 242 25 53 36 76 96 184 493 115 420 124 475 89 546 -11 21 -128 159 -260
306 -133 147 -247 274 -254 283 -10 13 10 37 143 169 86 85 160 155 164 157 4
1 18 -32 31 -75 29 -101 55 -147 99 -177 35 -24 681 -216 726 -216 169 1 256
202 141 328 -33 37 -57 46 -322 122 -137 39 -256 73 -265 76 -10 3 -29 48 -54
130 -31 102 -36 129 -27 142 60 82 77 203 42 296 -29 76 -166 223 -244 261
-63 31 -816 225 -871 225 -22 -1 -53 -7 -70 -15z"/>
<path d="M3873 3610 c-36 -4 -101 -23 -155 -46 -74 -30 -105 -50 -149 -94 -72
-72 -94 -130 -87 -239 l5 -76 -80 -95 c-45 -52 -82 -97 -83 -99 -2 -2 -118 11
-258 28 -140 17 -277 31 -306 31 -67 0 -122 -29 -157 -82 -24 -35 -28 -52 -28
-108 0 -55 4 -73 27 -107 46 -70 74 -78 448 -124 199 -24 353 -38 379 -35 61
8 97 34 165 116 32 39 62 68 66 63 8 -8 190 -437 190 -447 0 -3 -77 -60 -171
-127 -93 -67 -181 -136 -194 -153 -13 -17 -142 -268 -286 -559 -279 -561 -284
-574 -260 -665 15 -53 73 -119 126 -143 87 -40 213 -15 272 55 14 17 115 212
224 433 109 222 200 403 203 403 2 0 165 -193 361 -430 215 -259 371 -438 393
-452 54 -33 164 -38 219 -9 121 61 167 212 98 325 -13 23 -166 212 -339 420
l-315 380 205 199 c113 110 214 217 225 238 27 53 25 133 -5 217 -13 37 -87
217 -165 401 -78 184 -140 336 -138 337 4 4 247 -33 252 -38 1 -1 39 -104 83
-228 117 -329 119 -333 154 -367 41 -39 76 -53 134 -53 59 0 103 19 141 63 38
43 57 98 50 146 -5 40 -219 645 -248 702 -22 44 -67 84 -111 98 -25 8 -533 87
-798 124 -14 2 -53 0 -87 -3z"/>
<path d="M2343 1325 c-176 -54 -280 -220 -252 -399 19 -114 94 -215 199 -265
48 -23 68 -26 155 -26 95 0 103 2 163 34 74 40 124 94 160 171 22 46 26 70 27
140 0 75 -4 93 -31 150 -79 164 -257 247 -421 195z"/>
</g>
</svg>
