<?xml version="1.0" standalone="no"?>
<!DOCTYPE svg PUBLIC "-//W3C//DTD SVG 20010904//EN"
 "http://www.w3.org/TR/2001/REC-SVG-20010904/DTD/svg10.dtd">
<svg version="1.0" xmlns="http://www.w3.org/2000/svg"
 width="512.000000pt" height="512.000000pt" viewBox="0 0 512.000000 512.000000"
 preserveAspectRatio="xMidYMid meet">

<g transform="translate(0.000000,512.000000) scale(0.100000,-0.100000)"
fill="#000000" stroke="none">
<path d="M2512 5100 c-31 -29 -34 -59 -30 -338 l3 -254 28 -24 c35 -30 59 -30
94 0 l28 24 3 254 c2 139 1 268 -3 285 -12 66 -78 94 -123 53z"/>
<path d="M800 4390 c-12 -12 -20 -33 -20 -53 0 -29 22 -54 199 -231 174 -174
203 -199 231 -199 41 0 73 32 73 73 0 28 -24 56 -199 231 -177 176 -204 199
-232 199 -19 0 -40 -8 -52 -20z"/>
<path d="M4036 4211 c-175 -175 -199 -203 -199 -231 0 -41 32 -73 73 -73 28 0
57 25 231 199 177 177 199 202 199 231 0 43 -30 73 -72 73 -28 0 -55 -23 -232
-199z"/>
<path d="M2397 4279 c-94 -10 -260 -49 -347 -82 -338 -127 -647 -402 -806
-719 -40 -79 -41 -96 -13 -132 25 -31 78 -36 101 -8 8 9 36 56 62 103 159 287
424 512 734 623 265 95 598 95 864 0 326 -116 593 -351 751 -661 103 -203 147
-388 147 -624 0 -222 -43 -411 -138 -604 -61 -123 -136 -228 -269 -376 -154
-172 -209 -259 -244 -384 l-16 -60 -653 0 -652 0 -23 66 c-42 126 -98 205
-299 426 -148 163 -236 312 -301 506 -54 163 -69 279 -61 475 3 92 9 188 12
214 5 39 2 50 -16 68 -29 29 -86 24 -111 -10 -42 -58 -53 -386 -20 -582 48
-278 172 -534 360 -744 200 -223 224 -253 261 -326 21 -43 41 -97 45 -120 3
-24 9 -176 13 -338 l7 -296 33 -66 c21 -44 52 -84 91 -120 l58 -54 5 -85 c8
-152 85 -270 218 -333 l65 -31 320 0 320 0 65 31 c133 63 210 181 218 333 l5
85 58 54 c39 36 70 76 91 120 l33 66 5 336 c5 317 7 338 28 391 29 73 103 177
194 276 251 269 375 509 430 828 17 102 19 147 15 305 -8 260 -44 406 -157
635 -274 553 -867 879 -1483 814z m823 -3204 l0 -125 -105 0 c-92 0 -108 -3
-125 -20 -30 -30 -27 -83 6 -109 23 -18 41 -21 125 -21 l99 0 0 -27 c-1 -37
-35 -111 -68 -146 -15 -16 -45 -39 -67 -50 -39 -22 -48 -22 -510 -22 -462 0
-471 0 -510 22 -22 11 -52 34 -67 50 -33 35 -67 109 -68 146 l0 27 389 0 390
0 25 22 c36 33 39 75 6 108 -19 19 -33 20 -415 20 l-395 0 0 125 0 125 645 0
645 0 0 -125z m-190 -712 c-1 -82 -75 -176 -159 -201 -52 -16 -540 -16 -592 0
-84 25 -158 119 -159 201 l0 37 455 0 455 0 0 -37z"/>
<path d="M3058 3251 c-66 -22 -104 -62 -348 -376 -139 -179 -256 -325 -260
-325 -4 0 -65 64 -135 143 -163 181 -188 204 -254 223 -200 60 -376 -150 -281
-336 10 -19 93 -118 185 -220 396 -438 387 -430 500 -430 71 0 127 23 171 71
66 71 324 412 330 436 14 55 -72 107 -117 71 -9 -7 -86 -104 -172 -214 -86
-111 -163 -204 -172 -208 -24 -9 -64 -7 -83 3 -25 14 -506 549 -515 573 -18
50 34 118 91 118 30 0 60 -28 242 -230 175 -193 199 -213 245 -192 12 6 145
168 294 361 150 193 284 359 298 371 69 54 164 -22 129 -103 -7 -18 -47 -75
-88 -127 -87 -110 -95 -128 -73 -169 18 -35 55 -49 89 -33 25 11 182 205 209
257 55 107 11 247 -98 311 -49 28 -139 40 -187 25z"/>
<path d="M90 2678 c-42 -45 -15 -111 52 -123 18 -3 147 -5 286 -3 l254 3 24
28 c29 34 30 56 3 91 l-20 26 -289 0 c-285 0 -290 0 -310 -22z"/>
<path d="M4411 2674 c-27 -35 -26 -57 3 -91 l24 -28 254 -3 c139 -2 268 0 286
3 65 12 93 79 52 123 -20 22 -25 22 -310 22 l-289 0 -20 -26z"/>
<path d="M1185 1350 c-11 -4 -107 -95 -212 -202 -170 -171 -193 -198 -193
-226 0 -42 31 -72 73 -72 29 0 54 22 231 199 174 174 199 203 199 231 0 50
-54 89 -98 70z"/>
<path d="M3885 1350 c-31 -12 -48 -38 -48 -71 0 -26 28 -59 199 -230 177 -177
202 -199 231 -199 43 0 73 30 73 72 0 28 -23 55 -197 229 -109 109 -207 200
-218 202 -11 3 -29 2 -40 -3z"/>
</g>
</svg>
